<!--
<svg width="24" height="24" viewBox="0 0 24 24" fill="none" xmlns="http://www.w3.org/2000/svg" focusable="false" role="img">
    <path
            fill="#63B3ED"
            fill-rule="evenodd"
            d="M12 21C16.9706 21 21 16.9706 21 12C21 7.02944 16.9706 3 12 3C7.02944 3 3 7.02944 3 12C3 16.9706 7.02944 21 12 21Z"
            clip-rule="evenodd"
    />
    <path
            fill="#000"
            fill-rule="evenodd"
            d="M16.5725 9.48447C16.8401 9.16827 16.8007 8.69503 16.4845 8.42748C16.1683 8.15992 15.695 8.19935 15.4275 8.51556L10.454 14.3933L8.03033 11.9697C7.73744 11.6768 7.26256 11.6768 6.96967 11.9697C6.67678 12.2626 6.67678 12.7375 6.96967 13.0303L9.96967 16.0303C10.118 16.1787 10.3216 16.2581 10.5312 16.2494C10.7407 16.2407 10.9371 16.1446 11.0725 15.9845L16.5725 9.48447Z"
            clip-rule="evenodd"
    />
</svg>
-->

<svg width="1em" height="1em" viewBox="0 0 24 24" fill="none" xmlns="http://www.w3.org/2000/svg" focusable="false" role="img"><path fill-rule="evenodd" clip-rule="evenodd" d="M11.5 2.25a.75.75 0 0 1 .75.75v2.25H17a.75.75 0 0 1 .6.3l3 4c.2.267.2.633 0 .9l-3 4a.75.75 0 0 1-.6.3h-4.75V21a.75.75 0 0 1-1.5 0v-6.25H4a.75.75 0 0 1-.6-1.2L6.063 10 3.4 6.45a.75.75 0 0 1 .6-1.2h6.75V3a.75.75 0 0 1 .75-.75Zm0 11h5.125L19.063 10l-2.438-3.25H5.5l2.1 2.8c.2.267.2.633 0 .9l-2.1 2.8h6Z" fill="#000"></path></svg>
