<!--
<svg width="24" height="24" viewBox="0 0 24 24" fill="none" xmlns="http://www.w3.org/2000/svg" focusable="false" role="img">
    <path
            fill="#63B3ED"
            fill-rule="evenodd"
            d="M12 21C16.9706 21 21 16.9706 21 12C21 7.02944 16.9706 3 12 3C7.02944 3 3 7.02944 3 12C3 16.9706 7.02944 21 12 21Z"
            clip-rule="evenodd"
    />
    <path
            fill="#000"
            fill-rule="evenodd"
            d="M16.5725 9.48447C16.8401 9.16827 16.8007 8.69503 16.4845 8.42748C16.1683 8.15992 15.695 8.19935 15.4275 8.51556L10.454 14.3933L8.03033 11.9697C7.73744 11.6768 7.26256 11.6768 6.96967 11.9697C6.67678 12.2626 6.67678 12.7375 6.96967 13.0303L9.96967 16.0303C10.118 16.1787 10.3216 16.2581 10.5312 16.2494C10.7407 16.2407 10.9371 16.1446 11.0725 15.9845L16.5725 9.48447Z"
            clip-rule="evenodd"
    />
</svg>
-->

<svg width="1em" height="1em" viewBox="0 0 24 24" fill="none" xmlns="http://www.w3.org/2000/svg" focusable="false" role="img">
    <path fill-rule="evenodd" clip-rule="evenodd"
          d="M7.742 2.47a.75.75 0 0 1 .53-.22h7.456a.75.75 0 0 1 .53.22l5.272 5.272c.141.14.22.331.22.53v7.456a.75.75 0 0 1-.22.53l-5.272 5.272a.75.75 0 0 1-.53.22H8.272a.75.75 0 0 1-.53-.22L2.47 16.258a.75.75 0 0 1-.22-.53V8.272a.75.75 0 0 1 .22-.53L7.742 2.47Z
          m1.288 5.5a.75.75 0 0 0-1.06 1.06L10.94 12l-2.97 2.97a.75.75 0 1 0 1.06 1.06L12 13.06l2.97 2.97a.75.75 0 1 0 1.06-1.06L13.06 12l2.97-2.97a.75.75 0 0 0-1.06-1.06L12 10.94 9.03 7.97Z"
    fill="#63B3ED">

    </path>


</svg>
